<?xml version="1.0" encoding="utf-8"?>
<!-- Generator: Adobe Illustrator 15.0.0, SVG Export Plug-In . SVG Version: 6.00 Build 0)  -->
<!DOCTYPE svg PUBLIC "-//W3C//DTD SVG 1.1//EN" "http://www.w3.org/Graphics/SVG/1.1/DTD/svg11.dtd">
<svg version="1.1" id="Layer_1" xmlns="http://www.w3.org/2000/svg" xmlns:xlink="http://www.w3.org/1999/xlink" x="0px" y="0px"
	 width="200px" height="250px" viewBox="0 0 200 250" enable-background="new 0 0 200 250" xml:space="preserve">
<g>
	<path fill="#DAE121" d="M181.696,87.073c-12.608,5.743-27.592,2.283-27.592,2.283s5.467-12.772,18.076-18.515
		c12.613-5.742,27.592-2.282,27.592-2.282S194.306,81.331,181.696,87.073z"/>
	<path fill="#DAE121" d="M25.661,91.725c-14.185,0.414-26.031-8.381-26.031-8.381s11.158-9.465,25.347-9.881
		c14.184-0.413,26.03,8.381,26.03,8.381S39.848,91.311,25.661,91.725z"/>
	<path fill="#DAE121" d="M114.888,17.198c6.685,11.037,2.955,24.287,2.955,24.287S103.28,36.837,96.599,25.8
		c-6.681-11.035-2.957-24.285-2.957-24.285S108.204,6.162,114.888,17.198z"/>
	<path fill="#92AB23" d="M149.207,23.809c-7.285,10.736-22.083,14.754-22.083,14.754s-2.992-13.393,4.289-24.129
		c7.28-10.739,22.085-14.755,22.085-14.755S156.489,13.069,149.207,23.809z"/>
	<path fill="#92AB23" d="M50.392,54.538c5.522,11.522,0.451,24.42,0.451,24.42S36.816,73.17,31.295,61.646
		c-5.523-11.525-0.45-24.421-0.45-24.421S44.869,43.012,50.392,54.538z"/>
	<path fill="#92AB23" d="M51.36,178.594c-10.554,8.361-26.042,8.352-26.042,8.352s1.629-13.576,12.184-21.938
		c10.557-8.364,26.043-8.352,26.043-8.352S61.916,170.228,51.36,178.594z"/>
	<path fill="#865B4C" d="M77.509,249.667c0,0,23.741-71.928-13.64-93.836c0,0,23.653,3.81,27.486,10.954s-8.18-93.673-41.233-85.263
		c0,0,27.387-6.521,29.911,8.409c0,0,8.084-49.849,51.527-52.708c0,0-33.846,9.675-13.134,52.708c0,0,21.722-16.835,42.938,0
		c0,0-39.402-7.457-36.876,27.316c1.01,19.454-1.517,112.414,20.207,132.419"/>
	<path fill="#92AB23" d="M152.071,150.238c-10.555,8.364-26.042,8.353-26.042,8.353s1.629-13.577,12.181-21.938
		c10.559-8.364,26.045-8.352,26.045-8.352S162.626,141.875,152.071,150.238z"/>
</g>
</svg>
